<?xml version="1.0" encoding="UTF-8" standalone="no"?>
<!-- Generator: Adobe Illustrator 21.1.0, SVG Export Plug-In . SVG Version: 6.00 Build 0)  -->

<svg
   xmlns:dc="http://purl.org/dc/elements/1.1/"
   xmlns:cc="http://creativecommons.org/ns#"
   xmlns:rdf="http://www.w3.org/1999/02/22-rdf-syntax-ns#"
   xmlns:svg="http://www.w3.org/2000/svg"
   xmlns="http://www.w3.org/2000/svg"
   xmlns:sodipodi="http://sodipodi.sourceforge.net/DTD/sodipodi-0.dtd"
   xmlns:inkscape="http://www.inkscape.org/namespaces/inkscape"
   version="1.1"
   id="Layer_1"
   x="0px"
   y="0px"
   width="429.79999"
   height="138.39999"
   viewBox="0 0 429.79999 138.39999"
   xml:space="preserve"
   sodipodi:docname="logo_with_glow_cropped.svg"
   inkscape:version="0.92.1 r15371"><metadata
     id="metadata16"><rdf:RDF><cc:Work
         rdf:about=""><dc:format>image/svg+xml</dc:format><dc:type
           rdf:resource="http://purl.org/dc/dcmitype/StillImage" /><dc:title></dc:title></cc:Work></rdf:RDF></metadata><defs
     id="defs14" /><sodipodi:namedview
     pagecolor="#ffffff"
     bordercolor="#666666"
     borderopacity="1"
     objecttolerance="10"
     gridtolerance="10"
     guidetolerance="10"
     inkscape:pageopacity="0"
     inkscape:pageshadow="2"
     inkscape:window-width="640"
     inkscape:window-height="480"
     id="namedview12"
     showgrid="false"
     fit-margin-top="0"
     fit-margin-left="0"
     fit-margin-right="0"
     fit-margin-bottom="0"
     inkscape:zoom="0.25833333"
     inkscape:cx="214.6"
     inkscape:cy="80.5"
     inkscape:window-x="363"
     inkscape:window-y="144"
     inkscape:window-maximized="0"
     inkscape:current-layer="Layer_1" /><style
     type="text/css"
     id="style2">
	.st0{opacity:0.902;}
	.st1{fill:#006884;}
</style><g
     id="g9"
     transform="translate(-385.4,-207.6)"><g
       id="logo_copy_xA0_Image_1_"><path
         class="st1"
         d="m 806.5,322.9 v 15 c 0,0.8 -0.3,0.9 -0.9,1 h -1.1 v 1.4 h 8 V 339 h -1 c -0.7,0 -0.9,-0.3 -0.9,-1 v -17.7 l -6.2,0.3 v 1.4 c 0.3,0 0.6,0 0.9,0 0.9,-0.2 1.2,0 1.2,0.9 m -16.7,11 c 0,4.1 2.8,6.9 7.1,6.9 4.2,0 7.1,-2.8 7.1,-6.9 0,-4 -2.9,-6.9 -7.1,-6.9 -4.3,0 -7.1,2.9 -7.1,6.9 m 4.4,0 c 0,-3.6 0.8,-5.3 2.6,-5.3 1.9,0 2.6,1.7 2.6,5.3 0,3.6 -0.8,5.3 -2.6,5.3 -1.8,0 -2.6,-1.7 -2.6,-5.3 m -19.6,0 c 0,4.1 2.8,6.9 7.1,6.9 4.2,0 7.1,-2.8 7.1,-6.9 0,-4 -2.9,-6.9 -7.1,-6.9 -4.2,0 -7.1,2.9 -7.1,6.9 m 4.5,0 c 0,-3.6 0.8,-5.3 2.6,-5.3 1.8,0 2.6,1.7 2.6,5.3 0,3.6 -0.8,5.3 -2.6,5.3 -1.9,0 -2.6,-1.7 -2.6,-5.3 m -21.4,6.4 h 7.8 V 339 h -0.9 c -0.7,0 -0.9,-0.3 -0.9,-1 v -4 c 0,-2.9 0.8,-4.3 2.7,-4.3 1.4,0 2,0.9 2,2.7 v 5.7 c 0,0.9 -0.3,0.9 -0.9,1 l -0.9,0.1 v 1.4 h 7.8 v -1.4 h -1 c -0.7,0 -0.9,-0.3 -0.9,-1 v -6 c 0,-3.2 -1.3,-4.9 -4.3,-4.9 -1.9,0 -3.3,0.8 -4.4,2.4 v -9.3 l -6.2,0.3 v 1.4 c 0.3,0 0.6,0 0.9,0 1,0 1.4,0.2 1.4,1 v 15 c 0,0.8 -0.3,0.9 -0.9,1 h -1.1 z m -1.7,-4.7 c -0.7,2.3 -1.9,3.4 -3.7,3.4 -2.3,0 -3.5,-1.8 -3.5,-5.5 0,-3.5 0.9,-5.1 3.1,-5.1 0.9,0 1.4,0.4 1.4,0.8 0,0.3 -0.9,0.6 -0.9,2 0,1.1 0.9,2.1 2.1,2.1 1.4,0 2.4,-0.9 2.4,-2.6 0,-2 -2,-3.7 -5.3,-3.7 -4.4,0 -7.3,2.8 -7.3,6.9 0,4.1 2.8,6.9 6.8,6.9 3.2,0 5.2,-1.6 6.1,-4.8 z m -27.9,5.1 h 1.1 l 1.5,-1.6 c 1.5,1.3 3.2,1.8 5.4,1.8 4.3,0 6.7,-2.6 6.7,-6.3 0,-1.9 -0.6,-3.4 -1.6,-4.5 -1.2,-1.2 -2.7,-1.6 -4.6,-2.1 -3.6,-0.9 -5.6,-1 -5.6,-3.3 0,-1.8 1.3,-2.9 3.5,-2.9 2.8,0 4.6,1.9 6.4,5.9 h 1.2 l -0.3,-7.2 h -1.1 l -1.3,1.4 c -1.5,-0.9 -3.1,-1.4 -4.9,-1.4 -4,0 -6.6,2.6 -6.6,6.1 0,3.5 2.1,5.2 6.4,6.3 2.2,0.6 3.8,0.9 4.7,1.5 0.6,0.4 0.9,1.2 0.9,2 0,2 -1.4,3.2 -3.6,3.2 -3.2,0 -5.5,-2.3 -7.1,-6.6 h -1.3 z m -15.6,-17.8 v 15 c 0,0.8 -0.3,0.9 -0.9,1 h -1.1 v 1.4 h 8 V 339 h -1 c -0.7,0 -0.9,-0.3 -0.9,-1 v -17.7 l -6.2,0.3 v 1.4 c 0.3,0 0.6,0 0.9,0 0.8,-0.2 1.2,0 1.2,0.9 m -8.9,10.9 v 1.6 c 0,2.4 -1.2,3.5 -2.6,3.5 -1,0 -1.6,-0.7 -1.6,-1.8 0,-2 1.3,-2.8 4.2,-3.3 m 4,3.5 v -5.8 c 0,-1.4 -0.1,-2.3 -1.1,-3.2 -1,-0.9 -2.6,-1.4 -4.8,-1.4 -3.8,0 -6,1.4 -6,3.6 0,1.1 0.9,2 2.1,2 1.3,0 2,-0.7 2,-1.7 0,-0.9 -0.7,-1.2 -0.7,-1.5 0,-0.4 0.8,-0.9 2,-0.9 1.8,0 2.4,0.8 2.4,2.6 v 1.4 c -5.8,0.9 -8.5,2.4 -8.5,5.2 0,2 1.4,3.2 3.9,3.2 1.9,0 3.8,-0.7 5.2,-2 0.2,1.1 1.1,2 2.5,2 1.9,0 3.2,-1.3 3.2,-2.3 0,-0.3 -0.2,-0.4 -0.3,-0.4 -0.2,0 -0.4,0.3 -0.9,0.3 -0.7,0 -1,-0.3 -1,-1.1 m -15,-1.7 c -0.7,2.3 -1.9,3.4 -3.7,3.4 -2.3,0 -3.5,-1.8 -3.5,-5.5 0,-3.5 0.9,-5.1 3.1,-5.1 0.9,0 1.4,0.4 1.4,0.8 0,0.3 -0.9,0.6 -0.9,2 0,1.1 0.9,2.1 2.1,2.1 1.4,0 2.4,-0.9 2.4,-2.6 0,-2 -2,-3.7 -5.3,-3.7 -4.4,0 -7.3,2.8 -7.3,6.9 0,4.1 2.8,6.9 6.8,6.9 3.2,0 5.2,-1.6 6.1,-4.8 z m -18.5,-12.9 c 0,1.4 1,2.5 2.3,2.5 1.3,0 2.2,-1.1 2.2,-2.5 0,-1.4 -1,-2.4 -2.2,-2.4 -1.2,0 -2.3,1 -2.3,2.4 m 4.5,15.2 v -10.8 l -6.2,0.3 v 1.4 c 0.3,0 0.5,0 0.8,0 1.1,0 1.4,0.2 1.4,1.1 v 8.1 c 0,0.8 -0.3,0.9 -0.9,1 h -1.1 v 1.4 h 8 V 339 h -1 c -0.9,0 -1,-0.2 -1,-1.1 m -13.2,-15 v 6 c -1,-1.2 -2.2,-1.8 -3.7,-1.8 -3.4,0 -6,2.9 -6,7 0,4 2.4,6.6 5.5,6.6 1.9,0 3.2,-0.7 4.3,-2.2 v 2.2 l 6.1,-0.3 V 339 c -0.3,0 -0.5,0 -0.8,0 -1.1,0 -1.4,-0.2 -1.4,-1.1 V 320 l -6.3,0.3 v 1.4 h 1.1 c 0.9,0.2 1.2,0.3 1.2,1.2 m 0.1,11.1 c 0,3.2 -1,4.9 -2.8,4.9 -1.6,0 -2.5,-1.7 -2.5,-4.9 0,-3.3 0.9,-4.9 2.6,-4.9 1.9,-0.2 2.7,1.5 2.7,4.9 m -12.2,1.9 c -0.9,2 -2.2,3.2 -3.9,3.2 -2.4,0 -3.6,-1.6 -3.6,-4.8 v -0.2 h 8.7 v -0.3 c 0,-4.3 -2.2,-6.7 -6.1,-6.7 -4.2,0 -7.1,2.8 -7.1,6.9 0,4.1 2.8,6.9 7.2,6.9 3.2,0 5.2,-1.5 6,-4.3 z m -7.5,-3.2 c 0.1,-2.8 1,-4.2 2.6,-4.2 1.4,0 2,1 2,3.3 0,0.6 -0.2,0.9 -0.7,0.9 z m -24.7,-9.8 6,17.5 h 1.3 l 5.6,-17.6 v 14.7 c 0,1.1 -0.2,1.4 -1.3,1.4 h -1.2 v 1.4 h 9.6 V 339 h -1.3 c -1.1,0 -1.3,-0.3 -1.3,-1.4 v -13.9 c 0,-1.1 0.2,-1.4 1.3,-1.4 h 1.3 v -1.4 H 633 l -3.8,11.8 -4,-11.8 h -8.4 v 1.4 h 1.3 c 1.1,0 1.3,0.4 1.3,1.4 v 11.8 c 0,2.4 -0.4,3.4 -2.7,3.5 v 1.4 h 7.4 V 339 c -2.4,0 -3,-0.9 -3,-3.5 z m -18,10.9 v 1.6 c 0,2.4 -1.2,3.5 -2.6,3.5 -1,0 -1.6,-0.7 -1.6,-1.8 0,-2 1.3,-2.8 4.2,-3.3 m 4,3.5 v -5.8 c 0,-1.4 -0.1,-2.3 -1.1,-3.2 -1,-0.9 -2.6,-1.4 -4.8,-1.4 -3.8,0 -6,1.4 -6,3.6 0,1.1 0.9,2 2.1,2 1.3,0 2,-0.7 2,-1.7 0,-0.9 -0.7,-1.2 -0.7,-1.5 0,-0.4 0.8,-0.9 2,-0.9 1.8,0 2.4,0.8 2.4,2.6 v 1.4 c -5.8,0.9 -8.5,2.4 -8.5,5.2 0,2 1.4,3.2 3.9,3.2 1.9,0 3.8,-0.7 5.2,-2 0.2,1.1 1.1,2 2.5,2 1.9,0 3.2,-1.3 3.2,-2.3 0,-0.3 -0.2,-0.4 -0.3,-0.4 -0.1,0 -0.4,0.3 -0.9,0.3 -0.7,0 -1,-0.3 -1,-1.1 m -20,-14.6 c 0,1.4 1,2.5 2.3,2.5 1.3,0 2.2,-1.1 2.2,-2.5 0,-1.4 -1,-2.4 -2.2,-2.4 -1.3,0 -2.3,1 -2.3,2.4 m 4.5,15.2 v -10.8 l -6.2,0.3 v 1.4 c 0.3,0 0.5,0 0.8,0 1.1,0 1.4,0.2 1.4,1.1 v 8.1 c 0,0.8 -0.3,0.9 -0.9,1 h -1.1 v 1.4 h 8 V 339 h -1 c -0.9,0 -1,-0.2 -1,-1.1 m -23.8,2.4 h 7.9 V 339 h -0.9 c -0.7,0 -0.9,-0.3 -0.9,-1 v -4.1 c 0,-2.9 0.7,-4.3 2.6,-4.3 1.4,0 2,0.9 2,2.7 v 5.7 c 0,0.9 -0.3,0.9 -0.9,1 l -0.9,0.1 v 1.4 h 7.8 V 339 h -1.2 c -0.7,0 -0.9,-0.3 -0.9,-1 v -6.1 c 0,-3.2 -1.4,-4.7 -4.2,-4.7 -1.9,0 -3.3,0.9 -4.6,2.6 v -2.6 l -6.1,0.3 v 1.4 c 0.3,0 0.5,0 0.8,0 1.1,0 1.4,0.2 1.4,1.1 v 8.1 c 0,0.8 -0.3,0.9 -0.9,1 h -1.2 v 1.2 z m -7.3,-17.6 c 0,1.4 1,2.5 2.3,2.5 1.3,0 2.2,-1.1 2.2,-2.5 0,-1.4 -1,-2.4 -2.2,-2.4 -1.2,0 -2.3,1 -2.3,2.4 m 4.5,15.2 v -10.8 l -6.2,0.3 v 1.4 c 0.3,0 0.5,0 0.8,0 1.1,0 1.4,0.2 1.4,1.1 v 8.1 c 0,0.8 -0.3,0.9 -0.9,1 H 559 v 1.4 h 8 V 339 h -1 c -0.8,0 -1,-0.2 -1,-1.1 m -18.8,2.9 c -1.9,0.3 -2.9,1.2 -2.9,2.4 0,1.9 2,2.8 6.2,2.8 4.9,0 7.5,-1.6 7.5,-4.4 0,-1.6 -0.9,-2.9 -2.2,-3.5 -0.5,-0.2 -1.9,-0.3 -4.1,-0.3 h -1.9 c -0.9,0 -1.4,-0.2 -1.4,-0.9 0,-0.5 0.4,-0.9 1.3,-0.9 0.4,0 0.9,0.1 1.3,0.1 3.9,0 6.1,-1.8 6.1,-4.4 0,-1.4 -0.6,-2.4 -1.9,-3.3 0.3,-0.5 0.7,-0.9 0.9,-0.9 0.3,0 0.2,0.3 0.3,0.8 0.3,0.6 0.7,0.9 1.3,0.9 0.9,0 1.5,-0.8 1.5,-1.8 0,-1.1 -0.8,-1.9 -2,-1.9 -1,0 -2,0.6 -2.7,1.6 l -0.4,0.7 c -1.1,-0.5 -2.2,-0.8 -3.4,-0.8 -3.6,0 -6.1,2 -6.1,4.7 0,2 1.1,3.3 3.2,3.9 -2.1,0.3 -3.2,1.3 -3.2,2.7 0.1,1.3 1,2.1 2.6,2.5 m 1.3,0.8 h 3.8 c 1.6,0 2.4,0.3 2.4,1.3 0,1.1 -1.4,1.6 -4.1,1.6 -2,0 -3,-0.5 -3,-1.7 0,-0.6 0.3,-0.9 0.9,-1.2 m 0.4,-10.1 c 0,-2.2 0.6,-3.2 2,-3.2 1.4,0 2,1 2,3.2 0,2.2 -0.6,3.2 -2,3.2 -1.4,0.1 -2,-0.9 -2,-3.2 m -17.9,8.8 h 8.7 V 339 h -1.6 c -0.7,0 -0.9,-0.3 -0.9,-1 v -3 c 0,-3.5 1,-5.6 3,-6.3 -0.3,0.3 -0.4,0.8 -0.4,1.3 0,1.3 0.9,2.1 2,2.1 1.3,0 2.1,-0.9 2.1,-2.5 0,-1.6 -1.1,-2.6 -2.8,-2.6 -1.8,0 -3.2,1.3 -4.2,3.8 V 327 l -5.8,0.3 v 1.4 c 0.3,0 0.5,0 0.8,0 1.1,0 1.4,0.2 1.4,1.1 v 8.1 c 0,0.8 -0.3,0.9 -0.9,1 h -1.2 v 1.4 z m -7.1,-17.6 c 0,1.4 1,2.5 2.3,2.5 1.3,0 2.2,-1.1 2.2,-2.5 0,-1.4 -1,-2.4 -2.2,-2.4 -1.3,0 -2.3,1 -2.3,2.4 m 4.4,15.2 v -10.8 l -6.2,0.3 v 1.4 c 0.3,0 0.5,0 0.8,0 1.1,0 1.4,0.2 1.4,1.1 v 8.1 c 0,0.8 -0.3,0.9 -0.9,1 h -1.1 v 1.4 h 8 V 339 h -1 c -0.8,0 -1,-0.2 -1,-1.1 m -15,2.9 5.9,-15.5 c 0.8,-2.1 2,-3.2 3.4,-3.2 v -1.4 h -7.5 v 1.4 c 1.8,0.1 2.6,0.5 2.6,1.7 0,0.4 -0.1,0.9 -0.3,1.4 l -3.6,9.7 -4.2,-11.3 c -0.2,-0.3 -0.2,-0.6 -0.2,-0.8 0,-0.4 0.4,-0.7 1.2,-0.7 h 0.9 v -1.4 h -9.1 v 1.4 c 1.1,0 1.7,0.3 2,1.1 l 6.7,17.6 z m -35,-0.5 h 7.9 V 339 h -0.9 c -0.7,0 -0.9,-0.3 -0.9,-1 v -4.1 c 0,-2.9 0.7,-4.3 2.6,-4.3 1.4,0 2,0.9 2,2.7 v 5.7 c 0,0.9 -0.3,0.9 -0.9,1 l -0.9,0.1 v 1.4 H 494 V 339 h -1 c -0.7,0 -0.9,-0.3 -0.9,-1 v -6.1 c 0,-3.2 -1.4,-4.7 -4.2,-4.7 -1.9,0 -3.3,0.9 -4.6,2.6 v -2.6 l -6.1,0.3 v 1.4 c 0.3,0 0.5,0 0.8,0 1.1,0 1.4,0.2 1.4,1.1 v 8.1 c 0,0.8 -0.3,0.9 -0.9,1 h -1.2 z m -13.3,0 h 8.7 V 339 H 471 c -0.7,0 -0.9,-0.3 -0.9,-1 v -3 c 0,-3.5 1,-5.6 3,-6.3 -0.3,0.3 -0.4,0.8 -0.4,1.3 0,1.3 0.9,2.1 2,2.1 1.3,0 2.1,-0.9 2.1,-2.5 0,-1.6 -1.1,-2.6 -2.8,-2.6 -1.8,0 -3.2,1.3 -4.2,3.8 V 327 l -5.8,0.3 v 1.4 c 0.3,0 0.5,0 0.8,0 1.1,0 1.4,0.2 1.4,1.1 v 8.1 c 0,0.8 -0.3,0.9 -0.9,1 h -1.2 v 1.4 z m -1.9,-4.4 c -0.9,2 -2.2,3.2 -3.9,3.2 -2.4,0 -3.6,-1.6 -3.6,-4.8 v -0.2 h 8.7 v -0.3 c 0,-4.3 -2.2,-6.7 -6.1,-6.7 -4.2,0 -7.1,2.8 -7.1,6.9 0,4.1 2.8,6.9 7.2,6.9 3.2,0 5.2,-1.5 6,-4.3 z m -7.5,-3.2 c 0.2,-2.8 1,-4.2 2.6,-4.2 1.4,0 2,1 2,3.3 0,0.6 -0.2,0.9 -0.7,0.9 z m -5.6,2.5 h -1.4 c -0.1,2.2 -0.5,3.3 -1.5,3.3 -0.9,0 -1.1,-0.8 -1.1,-2.3 V 329 h 3.5 v -1.6 H 445 v -5.5 h -1.8 c -0.2,3.5 -1.6,5.5 -4.2,5.6 v 1.4 h 1.9 v 7.4 c 0,3 0.8,4.3 3.6,4.3 2.8,0 4.5,-1.9 4.5,-5 0.1,0 0,-0.2 0,-0.4 m -21.7,0.4 0.1,5 h 1 l 1.1,-0.9 c 1,0.7 2.3,1 3.8,1 3.2,0 5.1,-1.9 5.1,-4.7 0,-2.4 -1.4,-3.8 -4.3,-4.4 -2.4,-0.4 -3.6,-0.6 -3.6,-2 0,-0.9 0.9,-1.5 2.1,-1.5 1.6,0 3.2,1.2 4.1,3.2 h 1.2 l -0.2,-4.3 h -1 l -1,0.8 c -0.9,-0.6 -2,-0.9 -3.2,-0.9 -3.2,0 -5,1.6 -5,4.3 0,2.6 1.6,3.8 5.2,4.5 1.8,0.3 2.7,0.7 2.7,1.8 0,1 -0.8,1.7 -2.1,1.7 -2,0 -3.7,-1.3 -4.8,-3.8 h -1.2 z m -7,-1.8 v 1.6 c 0,2.4 -1.2,3.5 -2.6,3.5 -1,0 -1.6,-0.7 -1.6,-1.8 0,-2 1.2,-2.8 4.2,-3.3 m 4,3.5 v -5.8 c 0,-1.4 -0.1,-2.3 -1.1,-3.2 -1,-0.9 -2.6,-1.4 -4.8,-1.4 -3.8,0 -6,1.4 -6,3.6 0,1.1 0.9,2 2.1,2 1.2,0 2,-0.7 2,-1.7 0,-0.9 -0.7,-1.2 -0.7,-1.5 0,-0.4 0.8,-0.9 2,-0.9 1.8,0 2.4,0.8 2.4,2.6 v 1.4 c -5.8,0.9 -8.5,2.4 -8.5,5.2 0,2 1.4,3.2 3.9,3.2 1.9,0 3.8,-0.7 5.2,-2 0.2,1.1 1.1,2 2.5,2 1.9,0 3.2,-1.3 3.2,-2.3 0,-0.3 -0.2,-0.4 -0.3,-0.4 -0.1,0 -0.4,0.3 -0.9,0.3 -0.7,0 -1,-0.3 -1,-1.1 m -32,3 h 17.4 l 0.3,-7.3 -1.3,-0.1 c -1,4.5 -3,6.1 -7.3,6.1 -1.6,0 -2,-0.2 -2,-1.4 V 331 h 0.3 c 2.3,0 3.2,1 3.7,3.8 h 1.3 v -9 h -1.3 c -0.4,2.7 -1.4,3.8 -3.7,3.8 h -0.3 v -5.9 c 0,-1.4 0.4,-1.4 1.9,-1.4 4,0 5.8,1.4 6.7,5.7 h 1.3 l -0.2,-7.1 h -16.9 v 1.4 h 1.3 c 1.1,0 1.3,0.3 1.3,1.4 v 13.9 c 0,1.1 -0.2,1.4 -1.3,1.4 h -1.3 v 1.3 z"
         id="path4"
         inkscape:connector-curvature="0"
         style="fill:#006884" /><path
         class="st1"
         d="m 735.2,311.7 h 6.1 l 8.3,-8.3 c 8.5,6.4 17.6,9 29.1,9 22.9,0 36.5,-12.9 36.5,-32.1 0,-9.4 -3.2,-17.6 -8.8,-22.9 -6.4,-6.2 -14.7,-8.3 -25.1,-10.7 -19.3,-4.4 -30.6,-5.3 -30.6,-16.9 0,-9.3 6.7,-14.9 18.8,-14.9 15.1,0 25,9.7 34.5,30 h 6.6 l -1.7,-36.6 h -6.1 l -7,6.8 c -8.1,-4.9 -16.6,-7.5 -26.2,-7.5 -21.6,0 -35.9,13.4 -35.9,31.1 0,17.8 11.6,26.2 34.8,32 12.2,3.1 20.8,4.4 25.4,7.6 3.2,2.2 5.2,6.1 5.2,10.5 0,10 -7.2,16.2 -19.6,16.2 -16.9,0 -30.2,-11.5 -38.3,-33.5 H 734 Z M 622.1,221.2 654.4,310 h 7 l 30.3,-89.4 v 74.8 c 0,5.5 -1.1,7.2 -7.2,7.2 h -6.3 v 7.3 h 52.2 v -7.3 h -7 c -6.1,0 -7.2,-1.6 -7.2,-7.2 v -70.8 c 0,-5.5 1.1,-7.3 7.2,-7.3 h 7 v -7.2 h -44.3 l -20.7,59.7 -21.8,-59.7 h -45.2 v 7.2 h 7.2 c 6.1,0 7,2.2 7,7.5 V 285 c 0,12.4 -2.2,17.1 -14.8,17.7 V 310 H 638 v -7.3 c -13,-0.2 -15.9,-4.9 -15.9,-17.7 z m -79,91.3 32.3,-78.8 c 4.3,-10.8 10.7,-16.4 18.7,-16.6 V 210 H 553 v 7.3 c 9.7,0.3 13.8,2.5 13.8,8.6 0,2 -0.4,4.3 -1.4,6.9 l -19.8,49.3 -23,-57.4 c -0.7,-1.8 -1.1,-3.1 -1.1,-4 0,-2.2 2.2,-3.5 6.6,-3.5 H 533 V 210 h -49.7 v 7.2 c 6.2,0 9.3,1.5 11.2,5.8 l 37,89.4 z M 385.4,310 h 95.1 l 1.9,-37.5 -7.1,-0.5 c -5.5,22.9 -16.2,31 -40,31 -8.6,0 -10.7,-0.7 -10.7,-7.5 v -33.3 h 2 c 12.4,0 17.6,5.3 20,19.1 h 7.1 v -45.8 h -7 c -2.4,13.8 -7.5,19.3 -20,19.3 h -2 v -30 c 0,-6.9 2.1,-7.5 10.3,-7.5 21.7,0 31.6,7.5 36.7,28.9 h 6.9 l -1.1,-36 h -92 v 7.2 h 7.1 c 6.2,0 7.2,1.8 7.2,7.3 v 70.8 c 0,5.5 -1.1,7.2 -7.2,7.2 h -7.1 z"
         id="path6"
         inkscape:connector-curvature="0"
         style="fill:#006884" /></g></g></svg>